<svg xmlns="http://www.w3.org/2000/svg" xmlns:xlink="http://www.w3.org/1999/xlink" version="1.1" x="0px" y="0px" viewBox="0 0 16 20" style="enable-background:new 0 0 16 16;" xml:space="preserve"><g><path d="M3.5,11h-2C1.224,11,1,10.776,1,10.5v-9C1,1.224,1.224,1,1.5,1h9C10.776,1,11,1.224,11,1.5v2C11,3.776,10.776,4,10.5,4   S10,3.776,10,3.5V2H2v8h1.5C3.776,10,4,10.224,4,10.5S3.776,11,3.5,11z"/><path d="M14.5,15h-9C5.224,15,5,14.776,5,14.5v-2C5,12.224,5.224,12,5.5,12S6,12.224,6,12.5V14h8V6h-1.5C12.224,6,12,5.776,12,5.5   S12.224,5,12.5,5h2C14.776,5,15,5.224,15,5.5v9C15,14.776,14.776,15,14.5,15z"/><path d="M10.5,11h-5C5.224,11,5,10.776,5,10.5v-5C5,5.224,5.224,5,5.5,5h5C10.776,5,11,5.224,11,5.5v5C11,10.776,10.776,11,10.5,11   z M6,10h4V6H6V10z"/></g></svg>