<svg xmlns="http://www.w3.org/2000/svg" xmlns:xlink="http://www.w3.org/1999/xlink" xml:space="preserve" version="1.1" style="shape-rendering:geometricPrecision;text-rendering:geometricPrecision;image-rendering:optimizeQuality;" viewBox="0 0 2540 3175" x="0px" y="0px" fill-rule="evenodd" clip-rule="evenodd"><defs><style type="text/css">
   
    .fil0 {fill:black;fill-rule:nonzero}
   
  </style></defs><g><path class="fil0" d="M635 799l0 361 335 336c66,-64 153,-107 249,-118l0 -579 -178 0c0,-1 -76,-20 -43,-76l228 -396c19,-34 68,-34 88,0l226 391c25,40 -4,81 -41,81l-178 0 0 579c96,11 183,54 249,118l336 -336 0 -361 -178 0c0,-1 -76,-20 -44,-76l228 -396c20,-34 69,-34 88,0l226 391c26,40 -4,81 -41,81l-178 0 0 382c0,15 -6,28 -16,37l-357 357c182,286 -23,664 -364,664 -341,0 -546,-378 -364,-664l-357 -357c-10,-9 -16,-22 -16,-37l0 -382 -178 0c-37,0 -67,-41 -41,-81l226 -391c19,-34 68,-34 88,0l228 396c20,34 -5,75 -44,75l-177 1zm90 -102l-141 -244 -141 244 282 0zm778 876c-207,-207 -563,-60 -563,234 0,293 356,441 564,233 128,-129 128,-338 -1,-467zm-233 -1120l-141 244 282 0 -141 -244zm686 0l-141 244 282 0 -141 -244z"/><path class="fil0" d="M983 1848c-21,-63 75,-95 96,-31 61,182 321,182 382,0 21,-64 117,-32 96,31 -91,275 -483,275 -574,0z"/><path class="fil0" d="M1260 558c-10,-18 16,-33 27,-16l45 78c10,18 -17,33 -27,15l-45 -77z"/><path class="fil0" d="M1947 555c-10,-18 17,-33 27,-16l45 78c10,18 -17,33 -27,16l-45 -78z"/><path class="fil0" d="M589 582c-11,-17 16,-33 26,-15l45 78c10,17 -16,33 -26,15l-45 -78z"/></g></svg>