<svg xmlns="http://www.w3.org/2000/svg" xmlns:xlink="http://www.w3.org/1999/xlink" version="1.1" x="0px" y="0px" viewBox="0 0 32 40" enable-background="new 0 0 32 32" xml:space="preserve"><g><polygon points="27,18 27,21 30,21  "/><path d="M26,21v-3h-1v-2c0-0.5527344-0.4472656-1-1-1h-7v-1h3c0.5523071,0,1-0.4477539,1-1V6h-3c-0.5523071,0-1-0.4476929-1-1V2h-4   c-0.5523071,0-1,0.4476929-1,1v10c0,0.5522461,0.4476929,1,1,1h2v1H8c-0.5527344,0-1,0.4472656-1,1v2H6v3   c0,0.5523071-0.4476929,1-1,1H2v7c0,0.5522461,0.4476929,1,1,1h7c0.5523071,0,1-0.4477539,1-1V19c0-0.5523071-0.4476929-1-1-1H9v-1   h14v1h-1c-0.5523071,0-1,0.4476929-1,1v10c0,0.5522461,0.4476929,1,1,1h7c0.5523071,0,1-0.4477539,1-1v-7h-3   C26.4476929,22,26,21.5523071,26,21z M14.5,7h4C18.7763672,7,19,7.2236328,19,7.5S18.7763672,8,18.5,8h-4   C14.2236328,8,14,7.7763672,14,7.5S14.2236328,7,14.5,7z M14.5,9h4C18.7763672,9,19,9.2236328,19,9.5S18.7763672,10,18.5,10h-4   C14.2236328,10,14,9.7763672,14,9.5S14.2236328,9,14.5,9z M14.5,12c-0.2763672,0-0.5-0.2236328-0.5-0.5s0.2236328-0.5,0.5-0.5h4   c0.2763672,0,0.5,0.2236328,0.5,0.5S18.7763672,12,18.5,12H14.5z M8.5,28h-4C4.2236328,28,4,27.7763672,4,27.5S4.2236328,27,4.5,27   h4C8.7763672,27,9,27.2236328,9,27.5S8.7763672,28,8.5,28z M8.5,26h-4C4.2236328,26,4,25.7763672,4,25.5S4.2236328,25,4.5,25h4   C8.7763672,25,9,25.2236328,9,25.5S8.7763672,26,8.5,26z M8.5,24h-4C4.2236328,24,4,23.7763672,4,23.5S4.2236328,23,4.5,23h4   C8.7763672,23,9,23.2236328,9,23.5S8.7763672,24,8.5,24z M27.5,28h-4c-0.2763672,0-0.5-0.2236328-0.5-0.5s0.2236328-0.5,0.5-0.5h4   c0.2763672,0,0.5,0.2236328,0.5,0.5S27.7763672,28,27.5,28z M27.5,26h-4c-0.2763672,0-0.5-0.2236328-0.5-0.5s0.2236328-0.5,0.5-0.5   h4c0.2763672,0,0.5,0.2236328,0.5,0.5S27.7763672,26,27.5,26z M28,23.5c0,0.2763672-0.2236328,0.5-0.5,0.5h-4   c-0.2763672,0-0.5-0.2236328-0.5-0.5s0.2236328-0.5,0.5-0.5h4C27.7763672,23,28,23.2236328,28,23.5z"/><polygon points="5,18 2,21 5,21  "/><polygon points="18,2 18,5 21,5  "/></g></svg>