<svg xmlns="http://www.w3.org/2000/svg" xmlns:xlink="http://www.w3.org/1999/xlink" version="1.1" x="0px" y="0px" viewBox="0 0 100 125" style="enable-background:new 0 0 100 100;" xml:space="preserve"><g><path d="M82.857,3C82.936,3,83,3.064,83,3.143v93.714C83,96.936,82.936,97,82.857,97H17.143C17.064,97,17,96.936,17,96.857V3.143   C17,3.064,17.064,3,17.143,3H82.857 M82.857,0H17.143C15.407,0,14,1.407,14,3.143v93.714c0,1.736,1.407,3.143,3.143,3.143h65.714   C84.593,100,86,98.593,86,96.857V3.143C86,1.407,84.593,0,82.857,0L82.857,0z"/></g><g><path d="M74.5,51.5h-26c-0.829,0-1.5-0.671-1.5-1.5s0.671-1.5,1.5-1.5h26c0.828,0,1.5,0.671,1.5,1.5S75.328,51.5,74.5,51.5z"/></g><path d="M31.871,50l4.189-4.189c0.586-0.585,0.586-1.536,0-2.121c-0.586-0.586-1.535-0.586-2.121,0l-4.189,4.189l-4.189-4.189  c-0.586-0.586-1.535-0.586-2.121,0c-0.586,0.585-0.586,1.536,0,2.121L27.629,50l-4.189,4.189c-0.586,0.586-0.586,1.535,0,2.121  c0.293,0.293,0.677,0.439,1.061,0.439s0.768-0.146,1.061-0.439l4.189-4.189l4.189,4.189c0.293,0.293,0.677,0.439,1.061,0.439  s0.768-0.146,1.061-0.439c0.586-0.586,0.586-1.535,0-2.121L31.871,50z"/><g><path d="M74.5,29h-26c-0.829,0-1.5-0.671-1.5-1.5s0.671-1.5,1.5-1.5h26c0.828,0,1.5,0.671,1.5,1.5S75.328,29,74.5,29z"/></g><g><path d="M28,34.371l-4.561-4.561c-0.586-0.585-0.586-1.536,0-2.121c0.586-0.586,1.535-0.586,2.121,0L28,30.129l8.439-8.439   c0.586-0.586,1.535-0.586,2.121,0c0.586,0.585,0.586,1.536,0,2.121L28,34.371z"/></g><g><path d="M74.5,74h-26c-0.829,0-1.5-0.672-1.5-1.5s0.671-1.5,1.5-1.5h26c0.828,0,1.5,0.672,1.5,1.5S75.328,74,74.5,74z"/></g><g><path d="M28,79.371l-4.561-4.561c-0.586-0.586-0.586-1.535,0-2.121s1.535-0.586,2.121,0L28,75.129l8.439-8.439   c0.586-0.586,1.535-0.586,2.121,0s0.586,1.535,0,2.121L28,79.371z"/></g></svg>