<svg xmlns="http://www.w3.org/2000/svg" xmlns:xlink="http://www.w3.org/1999/xlink" version="1.1" x="0px" y="0px" viewBox="0 0 90 112.5" style="enable-background:new 0 0 90 90;" xml:space="preserve"><g><path d="M71.0863953,69.57901c-6.6860352,6.8428345-15.6212158,10.6113281-25.1593018,10.6113281   c-19.4040527,0-35.1903076-15.7861938-35.1903076-35.1903076S26.5230408,9.8097229,45.9270935,9.8097229   c9.538147,0,18.4732666,3.7686157,25.1593018,10.6113892c0.4754028,0.4868774,1.2547607,0.4956055,1.7410889,0.0203247   c0.4863892-0.4753418,0.4953613-1.2548218,0.0202026-1.7410278c-7.1531982-7.321167-16.7138062-11.3532104-26.9205933-11.3532104   c-20.7619019,0-37.6528931,16.8909302-37.6528931,37.652832c0,10.0574951,3.916687,19.5128784,11.0282593,26.6245728   c7.1116943,7.1116943,16.5671387,11.0281982,26.6246338,11.0281982c10.2067871,0,19.7672729-4.0317993,26.9205933-11.3529663   c0.4751587-0.4863281,0.4661865-1.2658081-0.0202026-1.7411499C72.341156,69.0838318,71.5617981,69.0923157,71.0863953,69.57901z"/><path d="M80.4944763,37.0605164H62.1237488V26.7791443c0-0.4597168-0.2559814-0.8810425-0.6638794-1.0928345   c-0.4077759-0.2114868-0.8997192-0.1784668-1.2756958,0.0856934L34.2797546,43.9930115   c-0.3277588,0.2307739-0.5228882,0.6063843-0.5228882,1.0072021c0,0.4006958,0.1951294,0.7764893,0.5228882,1.0070801   l25.9044189,18.2207031c0.2114258,0.1486206,0.4592896,0.2241211,0.708374,0.2241211   c0.1940918,0,0.3887939-0.0457764,0.5673218-0.1384277c0.4078979-0.211792,0.6638794-0.6331787,0.6638794-1.0927734V52.9394226   h18.3707275c0.6801147,0,1.2313232-0.5512085,1.2313232-1.2313232V38.2918396   C81.7257996,37.6117859,81.1745911,37.0605164,80.4944763,37.0605164z"/></g></svg>