<svg xmlns="http://www.w3.org/2000/svg" viewBox="0 0 32 40" fill="none" x="0px" y="0px"><path fill-rule="evenodd" clip-rule="evenodd" d="M16.0489 7.23002C17.1395 7.23002 18.0297 6.34243 18.0297 5.24001C18.0297 4.13759 17.1395 3.25 16.0489 3.25C14.9583 3.25 14.0681 4.13759 14.0681 5.24001C14.0681 6.34243 14.9583 7.23002 16.0489 7.23002ZM16.0489 8.48002C17.8332 8.48002 19.2797 7.02942 19.2797 5.24001C19.2797 3.4506 17.8332 2 16.0489 2C14.2646 2 12.8181 3.4506 12.8181 5.24001C12.8181 7.02942 14.2646 8.48002 16.0489 8.48002Z" fill="black"/><path fill-rule="evenodd" clip-rule="evenodd" d="M26.7692 15.87C27.8598 15.87 28.75 14.9824 28.75 13.88C28.75 12.7776 27.8598 11.89 26.7692 11.89C25.6786 11.89 24.7885 12.7776 24.7885 13.88C24.7885 14.9824 25.6786 15.87 26.7692 15.87ZM26.7692 17.12C28.5535 17.12 30 15.6694 30 13.88C30 12.0906 28.5535 10.64 26.7692 10.64C24.9849 10.64 23.5385 12.0906 23.5385 13.88C23.5385 15.6694 24.9849 17.12 26.7692 17.12Z" fill="black"/><path fill-rule="evenodd" clip-rule="evenodd" d="M26.7692 28.23C27.8598 28.23 28.75 27.3424 28.75 26.24C28.75 25.1376 27.8598 24.25 26.7692 24.25C25.6786 24.25 24.7885 25.1376 24.7885 26.24C24.7885 27.3424 25.6786 28.23 26.7692 28.23ZM26.7692 29.48C28.5535 29.48 30 28.0294 30 26.24C30 24.4506 28.5535 23 26.7692 23C24.9849 23 23.5385 24.4506 23.5385 26.24C23.5385 28.0294 24.9849 29.48 26.7692 29.48Z" fill="black"/><path fill-rule="evenodd" clip-rule="evenodd" d="M5.23077 15.87C6.32136 15.87 7.21155 14.9824 7.21155 13.88C7.21155 12.7776 6.32136 11.89 5.23077 11.89C4.14018 11.89 3.25 12.7776 3.25 13.88C3.25 14.9824 4.14018 15.87 5.23077 15.87ZM5.23077 17.12C7.01508 17.12 8.46155 15.6694 8.46155 13.88C8.46155 12.0906 7.01508 10.64 5.23077 10.64C3.44647 10.64 2 12.0906 2 13.88C2 15.6694 3.44647 17.12 5.23077 17.12Z" fill="black"/><path fill-rule="evenodd" clip-rule="evenodd" d="M13.2308 28.23C14.3214 28.23 15.2115 27.3424 15.2115 26.24C15.2115 25.1376 14.3214 24.25 13.2308 24.25C12.1402 24.25 11.25 25.1376 11.25 26.24C11.25 27.3424 12.1402 28.23 13.2308 28.23ZM13.2308 29.48C15.0151 29.48 16.4615 28.0294 16.4615 26.24C16.4615 24.4506 15.0151 23 13.2308 23C11.4465 23 10 24.4506 10 26.24C10 28.0294 11.4465 29.48 13.2308 29.48Z" fill="black"/><path fill-rule="evenodd" clip-rule="evenodd" d="M5.23077 28.23C6.32136 28.23 7.21155 27.3424 7.21155 26.24C7.21155 25.1376 6.32136 24.25 5.23077 24.25C4.14018 24.25 3.25 25.1376 3.25 26.24C3.25 27.3424 4.14018 28.23 5.23077 28.23ZM5.23077 29.48C7.01508 29.48 8.46155 28.0294 8.46155 26.24C8.46155 24.4506 7.01508 23 5.23077 23C3.44647 23 2 24.4506 2 26.24C2 28.0294 3.44647 29.48 5.23077 29.48Z" fill="black"/><path fill-rule="evenodd" clip-rule="evenodd" d="M5.23091 10.6399L13.8463 6.31993L14.4041 7.4386L5.78866 11.7586L5.23091 10.6399Z" fill="black"/><path fill-rule="evenodd" clip-rule="evenodd" d="M18.1538 6.32002L26.7688 10.6408L26.2109 11.7594L17.5959 7.43864L18.1538 6.32002Z" fill="black"/><path fill-rule="evenodd" clip-rule="evenodd" d="M4.59998 23.3095L4.59998 16.0399L5.84998 16.0398L5.84998 23.3094L4.59998 23.3095Z" fill="black"/><path fill-rule="evenodd" clip-rule="evenodd" d="M12.6071 23.9862L4.60722 17.4862L5.39279 16.5138L13.3927 23.0138L12.6071 23.9862Z" fill="black"/><path fill-rule="evenodd" clip-rule="evenodd" d="M26.2307 23.6002V16.0402H27.4807V23.6002H26.2307Z" fill="black"/></svg>