<svg xmlns="http://www.w3.org/2000/svg" version="1.1" viewBox="-5.0 -10.0 110.0 135.0">
 <path d="m95.703 50c0-0.64844 0.52344-1.1719 1.1719-1.1719s1.1719 0.52344 1.1719 1.1719c0 8.7305-2.375 17.297-6.8789 24.777-4.5 7.4805-10.957 13.594-18.672 17.684l4.8945 1.3086c0.62109 0.16797 0.99219 0.80859 0.82812 1.4336-0.16797 0.625-0.80859 0.99609-1.4336 0.82812l-7.9062-2.1172c-0.30078-0.082031-0.55469-0.27734-0.71094-0.54687-0.15625-0.26953-0.19922-0.58594-0.11719-0.88672l2.1172-7.9062c0.082031-0.30078 0.27734-0.55469 0.54688-0.71094 0.26562-0.15625 0.58594-0.19922 0.88672-0.11719 0.625 0.16406 0.99609 0.80859 0.82813 1.4297l-1.457 5.4414v0.003906c7.4531-3.8477 13.703-9.6758 18.066-16.84 4.3633-7.1641 6.668-15.391 6.6641-23.781zm-54.504 0.82031c-0.44531-0.45703-0.44141-1.1914 0.011719-1.6445 0.45312-0.45312 1.1875-0.45703 1.6445-0.011719l4.4922 4.4922 9.7969-9.7969c0.45703-0.44531 1.1875-0.4375 1.6406 0.015625 0.45312 0.44922 0.45703 1.1836 0.015625 1.6406l-10.625 10.625c-0.45703 0.45703-1.1992 0.45703-1.6562 0zm5.625-35.375c-1.5703 0.003907-2.8398 1.2734-2.8438 2.8398v5.0898c-3.0312 0.68359-5.9219 1.8828-8.5508 3.543l-3.6016-3.6016 0.003906 0.003906c-1.1133-1.1094-2.9102-1.1094-4.0195 0l-4.4922 4.4922c-1.1094 1.1094-1.1094 2.9062 0 4.0156l3.6016 3.6016h-0.003906c-1.6602 2.6289-2.8594 5.5195-3.543 8.5508h-5.0898c-1.5664 0.003906-2.8359 1.2734-2.8398 2.8398v6.3594c0.003907 1.5664 1.2734 2.8359 2.8398 2.8398h5.0898c0.68359 3.0312 1.8828 5.9219 3.543 8.5508l-3.6016 3.6016 0.003906-0.003906c-1.1094 1.1133-1.1094 2.9102 0 4.0195l4.4922 4.4922c1.1094 1.1094 2.9062 1.1094 4.0156 0l3.6016-3.6016v0.003906c2.6289 1.6602 5.5195 2.8594 8.5508 3.543v5.0898c0.003906 1.5664 1.2734 2.8359 2.8398 2.8398h6.3555c1.5703-0.003907 2.8398-1.2734 2.8438-2.8398v-5.0898c3.0312-0.68359 5.9219-1.8828 8.5469-3.543l3.6016 3.6016v-0.003906c1.1133 1.1094 2.9062 1.1094 4.0195 0l4.4922-4.4922c1.1094-1.1094 1.1094-2.9062 0-4.0156l-3.6016-3.6016c1.6641-2.6289 2.8633-5.5195 3.5469-8.5508h5.0898c1.5664-0.003906 2.8359-1.2734 2.8398-2.8398v-6.3555c-0.003907-1.5703-1.2734-2.8398-2.8398-2.8438h-5.0898c-0.68359-3.0312-1.8828-5.9219-3.543-8.5508l3.6016-3.6016-0.003906 0.003906c1.1094-1.1133 1.1094-2.9102 0-4.0195l-4.4922-4.4922c-1.1094-1.1094-2.9062-1.1094-4.0156 0l-3.6016 3.6016v-0.003906c-2.6289-1.6602-5.5195-2.8594-8.5508-3.543v-5.0898c-0.003906-1.5664-1.2734-2.8359-2.8438-2.8398zm6.3555 2.3438h-6.3555c-0.27344 0.003907-0.49609 0.22266-0.5 0.49609v6.043h-0.003907c0 0.5625-0.39844 1.0469-0.95312 1.1484-3.3555 0.63281-6.5469 1.9492-9.3711 3.8672-0.46484 0.36719-1.1289 0.32422-1.5508-0.09375l-4.2734-4.2734c-0.19531-0.19141-0.50781-0.19141-0.70312 0l-4.4922 4.4922c-0.19141 0.19531-0.19141 0.50781 0 0.70312l4.2734 4.2734v0.003907c0.39453 0.39844 0.45312 1.0195 0.13672 1.4844-1.9258 2.8203-3.2539 6.0039-3.8945 9.3555-0.070313 0.58984-0.57031 1.0352-1.1641 1.0352h-6.043c-0.27344 0.003906-0.49219 0.22656-0.49609 0.5v6.3555c0.003907 0.27344 0.22266 0.49219 0.49609 0.49609h6.043v0.003907c0.5625 0 1.0469 0.39844 1.1484 0.95312 0.63281 3.3555 1.9492 6.5469 3.8672 9.3711 0.36719 0.46484 0.32422 1.1289-0.09375 1.5508l-4.2734 4.2734c-0.19141 0.19531-0.19141 0.50781 0 0.70312l4.4922 4.4922c0.19531 0.19141 0.50781 0.19141 0.70312 0l4.2734-4.2734h0.003907c0.39844-0.39453 1.0195-0.45312 1.4844-0.13672 2.8203 1.9258 6.0039 3.25 9.3555 3.8945 0.58984 0.066407 1.0352 0.57031 1.0352 1.1641v6.043c0.003906 0.27344 0.22656 0.49219 0.5 0.49609h6.3555c0.27344-0.003907 0.49219-0.22266 0.49609-0.49609v-6.043h0.003907c0-0.5625 0.39844-1.0469 0.95312-1.1484 3.3555-0.63281 6.5469-1.9492 9.3711-3.8672 0.46484-0.36719 1.1289-0.32422 1.5508 0.09375l4.2734 4.2734c0.19531 0.19141 0.50781 0.19141 0.70312 0l4.4922-4.4922c0.19141-0.19531 0.19141-0.50781 0-0.70312l-4.2734-4.2734v-0.003907c-0.39453-0.39844-0.45312-1.0195-0.13672-1.4844 1.9258-2.8203 3.2539-6.0039 3.8945-9.3555 0.070313-0.58984 0.57031-1.0352 1.1641-1.0352h6.043c0.27344-0.003906 0.49219-0.22266 0.49609-0.49609v-6.3555c-0.003907-0.27344-0.22266-0.49609-0.49609-0.5h-6.043v-0.003907 0.003907c-0.5625 0-1.0469-0.40234-1.1484-0.95703-0.63281-3.3555-1.9492-6.5469-3.8672-9.3711-0.36328-0.46484-0.32422-1.1289 0.09375-1.5508l4.2734-4.2734c0.19141-0.19531 0.19141-0.50781 0-0.70312l-4.4922-4.4922c-0.19531-0.19141-0.50781-0.19141-0.70312 0l-4.2734 4.2734h-0.003907c-0.39844 0.39453-1.0195 0.45312-1.4844 0.13672-2.8203-1.9258-6.0039-3.2539-9.3555-3.8945-0.58984-0.070313-1.0352-0.57031-1.0352-1.1641v-6.043c-0.003906-0.27344-0.22656-0.49219-0.5-0.49609zm-3.1797 14.348c-4.7383 0-9.2812 1.8828-12.633 5.2305-3.3477 3.3516-5.2305 7.8945-5.2305 12.633s1.8828 9.2812 5.2305 12.633c3.3516 3.3477 7.8945 5.2305 12.633 5.2305s9.2812-1.8828 12.633-5.2305c3.3477-3.3516 5.2305-7.8945 5.2305-12.633s-1.8828-9.2812-5.2305-12.633c-3.3516-3.3477-7.8945-5.2305-12.633-5.2305zm10.973 6.8906c-2.9102-2.9141-6.8555-4.5469-10.973-4.5469s-8.0625 1.6328-10.973 4.5469c-2.9141 2.9102-4.5469 6.8555-4.5469 10.973s1.6328 8.0625 4.5469 10.973c2.9102 2.9141 6.8555 4.5469 10.973 4.5469s8.0625-1.6328 10.973-4.5469c2.9102-2.9102 4.5469-6.8555 4.5469-10.973s-1.6367-8.0625-4.5469-10.973zm-10.973-34.73c-0.64844 0-1.1719-0.52344-1.1719-1.1719s0.52344-1.1719 1.1719-1.1719c8.7305 0 17.297 2.375 24.777 6.8789 7.4805 4.5 13.594 10.957 17.684 18.672l1.3086-4.8945c0.16797-0.62109 0.80859-0.99219 1.4336-0.82812 0.625 0.16797 0.99609 0.80859 0.82812 1.4336l-2.1172 7.9062c-0.082031 0.30078-0.27734 0.55469-0.54687 0.71094-0.26953 0.15625-0.58594 0.19922-0.88672 0.11719l-7.9062-2.1172c-0.625-0.16797-0.99609-0.80859-0.82812-1.4336 0.16797-0.625 0.80859-0.99609 1.4336-0.82813l5.4453 1.457h-0.003906c-3.8477-7.4531-9.6719-13.703-16.84-18.066-7.1641-4.3633-15.391-6.668-23.781-6.6641zm-45.703 45.703c0 0.64844-0.52344 1.1719-1.1719 1.1719s-1.1719-0.52344-1.1719-1.1719c0-8.7305 2.375-17.297 6.8789-24.777 4.5-7.4805 10.957-13.594 18.672-17.684l-4.8945-1.3086c-0.62109-0.16797-0.99219-0.80859-0.82812-1.4336 0.16797-0.625 0.80859-0.99609 1.4336-0.82812l7.9062 2.1172c0.30078 0.082031 0.55469 0.27734 0.71094 0.54687 0.15625 0.26953 0.19922 0.58594 0.11719 0.88672l-2.1172 7.9062c-0.16797 0.625-0.80859 0.99609-1.4336 0.82812-0.625-0.16797-0.99609-0.80859-0.82813-1.4336l1.457-5.4414c-7.4531 3.8477-13.703 9.6719-18.066 16.84-4.3633 7.1641-6.668 15.391-6.6641 23.781zm45.703 45.703c0.64844 0 1.1719 0.52344 1.1719 1.1719s-0.52344 1.1719-1.1719 1.1719c-8.7305 0-17.297-2.375-24.777-6.8789-7.4805-4.5-13.594-10.957-17.684-18.672l-1.3086 4.8945c-0.16797 0.62109-0.80859 0.99219-1.4336 0.82812-0.625-0.16797-0.99609-0.80859-0.82812-1.4336l2.1172-7.9062c0.082031-0.30078 0.27734-0.55469 0.54687-0.71094 0.26953-0.15625 0.58594-0.19922 0.88672-0.11719l7.9062 2.1172c0.625 0.16797 0.99609 0.80859 0.82812 1.4336-0.16797 0.625-0.80859 0.99609-1.4336 0.82813l-5.4453-1.457h0.003906c3.8477 7.4531 9.6719 13.703 16.84 18.066 7.1641 4.3633 15.391 6.668 23.781 6.6641z" fill-rule="evenodd"/>
</svg>
