<svg xmlns="http://www.w3.org/2000/svg" data-name="Layer 1" viewBox="0 0 100 125" x="0px" y="0px"><title>88all</title><path d="M80.64,12.87c-.21,0-.42,0-.62,0a1,1,0,0,0-.16,0H30.64A9.24,9.24,0,0,0,21.41,22V68.66H18.77a1,1,0,0,0-.2,0,9.23,9.23,0,0,0,0,18.39,1,1,0,0,0,.2,0h45.4a9.24,9.24,0,0,0,9.23-9.23V31.34h7.23a9.23,9.23,0,1,0,0-18.47ZM19.36,85.13a7.23,7.23,0,1,1,0-14.47H58.45a9.21,9.21,0,0,0,0,14.47Zm52-7.23a7.23,7.23,0,1,1-7.23-7.23,1,1,0,0,0,0-2H23.41V22.1a7.24,7.24,0,0,1,7.23-7.23H74.92A9.21,9.21,0,0,0,71.41,22V77.9Zm9.23-48.56H73.41V22.1a7.23,7.23,0,1,1,7.23,7.23Z"/><rect x="31.33" y="54.67" width="4" height="2"/><rect x="44.33" y="54.67" width="18" height="2"/><rect x="31.33" y="42.67" width="4" height="2"/><rect x="44.33" y="42.67" width="18" height="2"/><rect x="31.33" y="30.67" width="4" height="2"/><rect x="44.33" y="30.67" width="18" height="2"/></svg>