<svg xmlns="http://www.w3.org/2000/svg" version="1.1" viewBox="-5.0 -10.0 110.0 110.0">
 <g>
  <path d="m6.25 23.438c-1.7266 0-3.125 1.3984-3.125 3.125s1.3984 3.125 3.125 3.125h17.188c1.7266 0 3.125-1.3984 3.125-3.125s-1.3984-3.125-3.125-3.125z"/>
  <path d="m38.613 23.438c-4.1172 0-7.7383 2.6953-8.9414 6.6289l-10.508 34.375c-1.8359 6.0078 2.6367 12.121 8.9414 12.121h48.906c4.1172 0 7.7383-2.6953 8.9414-6.6289l10.508-34.375c1.8359-6.0078-2.6367-12.121-8.9414-12.121zm16.414 21.918-16.742-15.648c0.10938-0.011719 0.21875-0.019531 0.32812-0.019531h47.961l-27.898 16.09c-1.1758 0.67969-2.6523 0.50781-3.6484-0.42188zm6.7734 5.8359 28.344-16.348-10.172 33.266c-0.40234 1.3164-1.6055 2.2031-2.9609 2.2031h-48.906c-2.0703 0-3.582-2.0195-2.9648-4.0469l9.582-31.336 16.039 14.992c3 2.8047 7.4766 3.3242 11.039 1.2695z" fill-rule="evenodd"/>
  <path d="m3.125 42.188c0-1.7266 1.3984-3.125 3.125-3.125h12.5c1.7266 0 3.125 1.3984 3.125 3.125s-1.3984 3.125-3.125 3.125h-12.5c-1.7266 0-3.125-1.3984-3.125-3.125z"/>
  <path d="m6.25 54.688c-1.7266 0-3.125 1.3984-3.125 3.125s1.3984 3.125 3.125 3.125h6.25c1.7266 0 3.125-1.3984 3.125-3.125s-1.3984-3.125-3.125-3.125z"/>
 </g>
</svg>