<svg xmlns="http://www.w3.org/2000/svg" xmlns:xlink="http://www.w3.org/1999/xlink" version="1.1" x="0px" y="0px" viewBox="0 0 208 220" enable-background="new 0 0 208 176" xml:space="preserve"><g><circle cx="52.0107422" cy="36.6374512" r="12.498291"/><circle cx="52.0107422" cy="70.7678223" r="12.498291"/><circle cx="52.0107422" cy="104.8989258" r="12.4985352"/><circle cx="52.0107422" cy="139.027832" r="12.4985352"/><path d="M85.6606445,24.1391602c-6.9023438,0-12.4980469,5.5957031-12.4980469,12.4985352   c0,6.9023438,5.5957031,12.4980469,12.4980469,12.4980469c6.902832,0,12.4985352-5.5957031,12.4985352-12.4980469   C98.1591797,29.7348633,92.5634766,24.1391602,85.6606445,24.1391602z M85.6606445,44.0664063   c-4.0957031,0-7.4287109-3.3330078-7.4287109-7.4287109s3.3330078-7.4291992,7.4287109-7.4291992   s7.4291992,3.3334961,7.4291992,7.4291992S89.7563477,44.0664063,85.6606445,44.0664063z"/><circle cx="85.6606445" cy="70.7678223" r="12.498291"/><path d="M85.6606445,92.4003906c-6.9023438,0-12.4980469,5.5947266-12.4980469,12.4990234   c0,6.9003906,5.5957031,12.4980469,12.4980469,12.4980469c6.902832,0,12.4985352-5.5976563,12.4985352-12.4980469   C98.1591797,97.9951172,92.5634766,92.4003906,85.6606445,92.4003906z M85.6606445,112.328125   c-4.0957031,0-7.4287109-3.3330078-7.4287109-7.4287109s3.3330078-7.4296875,7.4287109-7.4296875   s7.4291992,3.3339844,7.4291992,7.4296875S89.7563477,112.328125,85.6606445,112.328125z"/><circle cx="85.6606445" cy="139.027832" r="12.4985352"/><circle cx="119.3115234" cy="36.6374512" r="12.498291"/><path d="M119.3115234,58.2695313c-6.9033203,0-12.4990234,5.5957031-12.4990234,12.4980469   c0,6.902832,5.5957031,12.4985352,12.4990234,12.4985352c6.9013672,0,12.4990234-5.5957031,12.4990234-12.4985352   C131.8105469,63.8652344,126.2128906,58.2695313,119.3115234,58.2695313z M119.3115234,78.1967773   c-4.0957031,0-7.4296875-3.3334961-7.4296875-7.4291992s3.3339844-7.4287109,7.4296875-7.4287109   s7.4296875,3.3330078,7.4296875,7.4287109S123.4072266,78.1967773,119.3115234,78.1967773z"/><circle cx="119.3115234" cy="104.8989258" r="12.4985352"/><circle cx="119.3115234" cy="139.027832" r="12.4985352"/><circle cx="152.9619141" cy="36.6374512" r="12.498291"/><path d="M152.9619141,58.2695313c-6.9042969,0-12.4980469,5.5957031-12.4980469,12.4980469   c0,6.902832,5.59375,12.4985352,12.4980469,12.4985352c6.9013672,0,12.4980469-5.5957031,12.4980469-12.4985352   C165.4599609,63.8652344,159.8632813,58.2695313,152.9619141,58.2695313z M152.9619141,78.1967773   c-4.0957031,0-7.4287109-3.3334961-7.4287109-7.4291992s3.3330078-7.4287109,7.4287109-7.4287109   s7.4287109,3.3330078,7.4287109,7.4287109S157.0576172,78.1967773,152.9619141,78.1967773z"/><circle cx="152.9619141" cy="104.8989258" r="12.4985352"/><path d="M152.9619141,126.5292969c-6.9042969,0-12.4980469,5.5976563-12.4980469,12.4980469   c0,6.9042969,5.59375,12.4990234,12.4980469,12.4990234c6.9013672,0,12.4980469-5.5947266,12.4980469-12.4990234   C165.4599609,132.1269531,159.8632813,126.5292969,152.9619141,126.5292969z M152.9619141,146.4570313   c-4.0957031,0-7.4287109-3.3339844-7.4287109-7.4296875s3.3330078-7.4287109,7.4287109-7.4287109   s7.4287109,3.3330078,7.4287109,7.4287109S157.0576172,146.4570313,152.9619141,146.4570313z"/></g></svg>